PathFileType	4	(X/Y/Z)	F:/Ayumi_testdata/Ayumi_25_09_2024/new_static/static_00.trc																																																																																																																																																																																																				
DataRate	CameraRate	NumFrames	NumMarkers	Units	OrigDataRate	OrigDataStartFrame	OrigNumFrames																																																																																																																																																																																																
200	200	4	66	mm	200	148	295																																																																																																																																																																																																
Frame#	Time	LASI			RASI			RSACR			LSACR			USACR			LBAR			RBAR			RHEE			RMT1			RMT5			RMT2			LHEE			LMT1			LMT5			LMT2			LMMAL			LMFC			LLFC			LLMAL			LTIB4			LTIB2			LTIB3			LTIB1			RMMAL			RMFC			RLFC			RLMAL			RTIB1			RTIB2			RTIB3			RTHI1			RTHI4			RTHI3			RTHI2			LTHI1			LTHI4			LTHI3			LTHI2			FHD			LBHD			RBHD			C7			T10			CLAV			LSHO			RSHO			LRAD			LUL			LRFIN			RRAD			RUL			RUFIN			RLEP			RMEP			LLEP			LMEP			LDUPA			LMUPA			LUUPA			RDUPA			RUUPA			RMUPA			LKJC			RKJC			LAJC			RAJC		
		X1	Y1	Z1	X2	Y2	Z2	X3	Y3	Z3	X4	Y4	Z4	X5	Y5	Z5	X6	Y6	Z6	X7	Y7	Z7	X8	Y8	Z8	X9	Y9	Z9	X10	Y10	Z10	X11	Y11	Z11	X12	Y12	Z12	X13	Y13	Z13	X14	Y14	Z14	X15	Y15	Z15	X16	Y16	Z16	X17	Y17	Z17	X18	Y18	Z18	X19	Y19	Z19	X20	Y20	Z20	X21	Y21	Z21	X22	Y22	Z22	X23	Y23	Z23	X24	Y24	Z24	X25	Y25	Z25	X26	Y26	Z26	X27	Y27	Z27	X28	Y28	Z28	X29	Y29	Z29	X30	Y30	Z30	X31	Y31	Z31	X32	Y32	Z32	X33	Y33	Z33	X34	Y34	Z34	X35	Y35	Z35	X36	Y36	Z36	X37	Y37	Z37	X38	Y38	Z38	X39	Y39	Z39	X40	Y40	Z40	X41	Y41	Z41	X42	Y42	Z42	X43	Y43	Z43	X44	Y44	Z44	X45	Y45	Z45	X46	Y46	Z46	X47	Y47	Z47	X48	Y48	Z48	X49	Y49	Z49	X50	Y50	Z50	X51	Y51	Z51	X52	Y52	Z52	X53	Y53	Z53	X54	Y54	Z54	X55	Y55	Z55	X56	Y56	Z56	X57	Y57	Z57	X58	Y58	Z58	X59	Y59	Z59	X60	Y60	Z60	X61	Y61	Z61	X62	Y62	Z62	X63	Y63	Z63	X64	Y64	Z64	X65	Y65	Z65	X66	Y66	Z66
																																																																																																																																																																																																							
148	0.735	133.0904236	762.0004883	918.1472778	128.7212524	984.4794922	918.6974487	308.4895325	912.3787842	950.1126099	307.680542	852.470459	953.3579712	296.8061523	882.3267822	966.4870605	1270.840576	-346.5010681	26.29971504	1226.432617	1876.937622	26.28054237	323.0657959	1019.64624	39.8337059	128.1665497	1043.313599	43.44426346	165.0624237	1113.660034	34.82861328	140.1738586	1079.956909	42.6948204	326.2519531	745.1655884	45.84558868	134.3823547	736.4564819	46.3284111	169.9645996	662.7838745	33.42967606	143.1609497	698.0461426	45.90618134	276.6786194	778.7122803	72.97507477	232.4626007	829.0534668	456.9503174	218.932312	721.4058228	453.9830322	278.8016357	700.9983521	69.14678955	290.1364746	691.4706421	209.6500702	313.6999512	691.4370728	271.0114136	263.2167969	684.4384155	268.1541748	301.4117126	687.0980835	314.3380432	275.1661682	994.081665	68.34579468	234.8988342	935.2923584	446.5362244	220.032959	1041.176392	461.2947998	284.6457825	1068.566162	72.2583847	256.7504883	1082.666626	319.2925415	307.1805725	1077.157837	314.1060791	276.2888489	1081.291992	256.1890259	240.8796692	1060.012939	783.8280029	242.1102753	1064.570068	635.0807495	190.6896515	1066.480225	636.9711304	218.3471375	1070.036987	697.0187378	237.8609619	698.6195679	778.8972168	235.8392334	695.0471191	646.5638428	185.2281647	693.3706055	637.4412231	199.5131989	689.5108032	701.1803589	130.5643311	776.1480103	1593.184326	241.3134766	787.1383057	1576.230591	252.8287659	910.6065063	1571.232788	263.0344543	858.2459106	1391.216919	284.9328308	877.4439087	1007.399231	140.6104889	872.9658203	1328.327026	244.7497406	725.4082031	1380.939575	236.5883331	987.1348877	1396.670044	166.3108215	222.8592072	1359.405396	206.9227753	222.5763092	1354.831665	153.0227661	130.9132233	1338.890259	241.0967255	1500.936523	1388.738159	287.9903259	1500.07959	1382.537231	235.3396759	1591.112915	1390.867798	293.2305603	1271.569214	1329.415039	254.9209137	1272.040161	1295.941895	221.5888824	454.2740479	1300.821411	180.6478577	466.8986511	1278.523926	237.8009338	506.3842468	1354.342651	201.8653412	536.9212036	1372.005493	238.8681183	585.6672363	1362.499023	266.2905579	1205.985474	1381.937012	256.9891968	1144.312744	1383.655762	216.0134735	1212.59668	1385.181519	225.6974487	775.2296143	455.4666748	227.4658966	988.234375	453.9155273	277.7401123	739.8553467	71.06092834	279.9059753	1031.323975	70.30209351
149	0.74	133.1086578	761.9882202	918.1464844	128.7309113	984.4803467	918.7033081	308.5075378	912.3827515	950.1187134	307.695343	852.4671631	953.3552856	296.8083191	882.3271484	966.4920654	1270.836304	-346.5513	26.30880928	1226.438354	1876.95105	26.28810692	323.0570984	1019.647522	39.8350029	128.1665344	1043.311401	43.44416428	165.0666962	1113.654053	34.8209343	140.1673584	1079.961914	42.69775391	326.2481689	745.1676025	45.84291077	134.3867798	736.4542236	46.32307053	170.0110321	662.7989502	33.38158798	143.1616058	698.0395508	45.90861893	276.6700745	778.7141113	72.97219849	232.4729614	829.0458374	456.9521484	218.9285736	721.401123	453.9759827	278.7987671	700.996582	69.14658356	290.1403198	691.4770508	209.6483612	313.6579895	691.2572632	271.2589417	263.2019348	684.4447021	268.1569519	301.3821411	687.1002197	314.3644104	275.1658936	994.0732422	68.34516144	234.8974609	935.2853394	446.5366821	220.0417633	1041.171997	461.2929993	284.6346436	1068.565918	72.26701355	256.7436829	1082.671631	319.2822571	307.1773987	1077.156006	314.1000671	276.2930603	1081.289673	256.1880798	240.8965454	1060.005615	783.8255615	241.9567871	1064.795898	635.0507813	190.6985474	1066.451172	636.9592896	218.234024	1070.087891	697.1345215	237.8814392	698.618103	778.8900757	235.8681335	695.0386963	646.5361938	185.2329865	693.3731079	637.4402466	199.5346069	689.5096436	701.1785889	130.5545959	776.1615601	1593.196533	241.3023224	787.1474609	1576.234253	252.8311157	910.6185303	1571.24353	263.0497742	858.2405396	1391.211914	284.9348145	877.4385376	1007.40094	140.6312256	872.958313	1328.325073	244.7745209	725.4091187	1380.947388	236.6086426	987.1294556	1396.671753	166.3079376	222.8681641	1359.427368	206.932373	222.579071	1354.867798	153.0265503	130.9088745	1338.918335	241.0810547	1500.939697	1388.73645	287.959259	1500.067627	1382.537476	235.3207703	1591.118042	1390.873779	293.2174988	1271.558228	1329.413696	254.9029694	1272.038574	1295.949829	221.6103973	454.2610474	1300.84082	180.6680603	466.8871155	1278.536255	237.8026276	506.3849792	1354.356567	201.8838501	536.9146118	1372.005249	238.8383484	585.6422729	1362.676147	266.2930298	1205.981323	1381.93457	256.9960022	1144.302979	1383.659668	216.0019989	1212.582642	1385.180786	225.7007751	775.2235107	455.4640503	227.4696045	988.2286377	453.914856	277.734436	739.8553467	71.05938721	279.9002686	1031.31958	70.30609131
150	0.745	133.1190491	761.9833374	918.1583862	128.7446899	984.4680176	918.7106934	308.516449	912.3765259	950.1168823	307.705658	852.4639893	953.3573608	296.8244934	882.3289795	966.4837036	1270.845581	-346.4775696	26.30588341	1226.434082	1876.951538	26.29553986	323.0574951	1019.653381	39.83523178	128.1684265	1043.301636	43.44216919	165.0615387	1113.653809	34.8273468	140.1654358	1079.958496	42.69667053	326.246582	745.178772	45.84847641	134.3806305	736.4536743	46.33377457	169.9766083	662.784668	33.41523361	143.1643219	698.0362549	45.91515732	276.6782837	778.7147827	72.96794891	232.5037537	829.036438	456.9467773	218.9489899	721.3910522	453.9767151	278.7979736	700.9919434	69.14820099	290.1581116	691.4754028	209.6482697	313.7298584	691.4356689	271.0293274	263.2049561	684.4486694	268.1494446	301.2797241	687.192627	314.3526306	275.1623535	994.0717163	68.34622192	234.9099579	935.2893066	446.5391846	220.0420685	1041.172241	461.2945862	284.6394348	1068.567139	72.26725006	256.7539978	1082.668091	319.2852173	307.1602478	1077.147827	314.0873718	276.2984619	1081.282349	256.1826477	240.8907928	1060.016846	783.8239746	241.9590149	1064.811523	635.0479736	190.6984406	1066.46228	636.9909668	218.3577728	1070.033325	697.0397339	237.8980865	698.621582	778.897583	235.8815155	695.0175171	646.5471802	185.2300873	693.3683472	637.4500122	199.5494385	689.5054932	701.1820679	130.5508728	776.1608887	1593.193726	241.3377686	787.1378784	1576.234497	252.8322449	910.621521	1571.237793	263.0473328	858.2396851	1391.215698	284.9499512	877.4470215	1007.399902	140.6502075	872.947998	1328.315308	244.796402	725.3988647	1380.950439	236.6196747	987.1161499	1396.664063	166.3053741	222.8688507	1359.457275	206.9415283	222.5739136	1354.886841	153.0233307	130.9043579	1338.95166	241.0532074	1500.934326	1388.747559	287.9530945	1500.061157	1382.542969	235.2909851	1591.116577	1390.880981	293.2017517	1271.561646	1329.417603	254.8881683	1272.046509	1295.955566	221.6175537	454.2593079	1300.858765	180.6841278	466.8829041	1278.551147	237.7964478	506.3817749	1354.386963	201.8928375	536.9099731	1372.022583	238.8250427	585.6340332	1362.690796	266.2755127	1205.988281	1381.942505	256.9984131	1144.299316	1383.667725	215.9997711	1212.578247	1385.18103	225.7263794	775.2137451	455.461731	227.4760132	988.2307739	453.9168701	277.7381287	739.8533936	71.05807495	279.9008789	1031.319458	70.30673218
151	0.75	133.137207	761.9726563	918.1612549	128.7567444	984.4563599	918.7133789	308.5303345	912.3833008	950.1199341	307.7358398	852.4664307	953.3537598	296.8518066	882.3275146	966.4833374	1270.833252	-346.5154419	26.29752731	1226.436768	1876.952881	26.28991699	323.0618896	1019.646179	39.84055328	128.151474	1043.307739	43.44765472	165.0700073	1113.654907	34.82867432	140.1664734	1079.957764	42.69812393	326.250061	745.1802368	45.84600067	134.3924255	736.4575806	46.32595444	169.970993	662.7819824	33.42720413	143.1647186	698.0360107	45.91663361	276.6749573	778.7177124	72.97506714	232.4992065	829.038208	456.9559326	218.9633026	721.3887939	453.9814148	278.7932434	700.994751	69.15174103	290.1611938	691.4760132	209.6541901	313.6459045	691.2603149	271.2644043	263.2025452	684.4337158	268.1523438	301.4069214	687.0939331	314.3557129	275.1660461	994.0775757	68.33982086	234.9116211	935.2859497	446.5332947	220.045517	1041.171143	461.2937622	284.6386108	1068.562256	72.26551819	256.7478943	1082.661865	319.2794495	307.1791992	1077.161133	314.1022949	276.2922363	1081.293823	256.1862793	240.9012146	1060.012085	783.8251343	241.9608307	1064.801758	635.0374756	190.6964417	1066.44519	636.9710083	218.3522339	1070.028687	697.0318604	237.9236908	698.6239624	778.9104614	235.8801727	695.0148315	646.5332642	185.2527161	693.3648071	637.4394531	199.5774231	689.4971313	701.1884766	130.5604248	776.1506958	1593.191895	241.3238525	787.1347656	1576.244263	252.8350983	910.6287842	1571.237671	263.0559998	858.2434082	1391.213989	284.9721375	877.4320068	1007.404297	140.6667023	872.9467163	1328.311279	244.8111572	725.394104	1380.946167	236.6255951	987.1114502	1396.663086	166.3219604	222.8714447	1359.487671	206.953476	222.5701447	1354.9104	153.0347595	130.8964996	1338.990845	241.0358734	1500.928101	1388.759644	287.9216309	1500.065552	1382.549927	235.2632904	1591.119751	1390.887329	293.1932068	1271.567261	1329.415649	254.875351	1272.03479	1295.956055	221.6347809	454.2458191	1300.866455	180.7006836	466.8791504	1278.55603	237.8016357	506.3753052	1354.403076	201.8830414	536.9120483	1372.030151	238.9492188	585.5975952	1362.400391	266.283905	1205.984131	1381.942017	256.9995422	1144.302734	1383.665527	216.0007935	1212.560547	1385.182007	225.7312622	775.213501	455.468689	227.4785767	988.2285156	453.9135132	277.7341003	739.8562012	71.06340027	279.9023438	1031.319946	70.30267334
